<svg xmlns="http://www.w3.org/2000/svg" xmlns:xlink="http://www.w3.org/1999/xlink" width="297" height="64" viewBox="0 0 297 64">
    <defs>
        <path id="a" d="M.435.068h13.08v36.304H.435z"/>
        <path id="c" d="M.854.503h7.53V36.58H.854z"/>
    </defs>
    <g fill="none" fill-rule="evenodd">
        <path fill="#FFF" d="M74.194 14.421l-13.407 1.175v7.331c0 .355-.012.704-.028 1.053-.006.13-.015.26-.024.39a22.833 22.833 0 0 1-.101 1.13 26.412 26.412 0 0 1-.146 1.065c-.016.1-.035.195-.051.292a22.418 22.418 0 0 1-1.94 5.945c-.388.79-.821 1.55-1.296 2.282-.034.051-.066.104-.099.156a32.756 32.756 0 0 1-.558.805c-.137.19-.277.378-.42.563l-.161.206c-.149.186-.299.372-.452.553-.044.053-.09.104-.135.159-.73.848-1.52 1.64-2.367 2.37-.053.045-.104.091-.159.137a22.991 22.991 0 0 1-2.124 1.594l-.152.097c-.732.474-1.492.91-2.279 1.299a22.353 22.353 0 0 1-5.934 1.943c-.098.017-.194.037-.294.051-.191.033-.387.06-.58.087-.161.022-.321.043-.482.06a18.95 18.95 0 0 1-1.127.1c-.131.01-.26.02-.388.026-.35.016-.699.028-1.052.028-.353 0-.701-.012-1.05-.028-.13-.006-.26-.016-.39-.025a17.893 17.893 0 0 1-1.125-.1 17.24 17.24 0 0 1-.483-.06c-.194-.029-.388-.055-.582-.088-.097-.014-.194-.034-.291-.051a22.131 22.131 0 0 1-8.213-3.242l-.154-.097a22.5 22.5 0 0 1-.594-.411 23.127 23.127 0 0 1-.77-.569c-.07-.055-.14-.109-.208-.164-.187-.147-.37-.297-.553-.45l-.157-.137a22.356 22.356 0 0 1-2.368-2.37c-.044-.055-.09-.106-.136-.16a27.174 27.174 0 0 1-.449-.552l-.163-.206a32.89 32.89 0 0 1-.42-.563l-.149-.21c-.138-.198-.276-.395-.409-.595l-.098-.156a22.171 22.171 0 0 1-2.388-4.927 22.236 22.236 0 0 1-.847-3.3c-.017-.097-.037-.193-.051-.293-.034-.193-.06-.389-.087-.582a25.48 25.48 0 0 1-.113-.98c-.02-.21-.036-.42-.047-.631-.01-.131-.02-.26-.027-.39-.016-.35-.026-.699-.026-1.054v-7.33L2.68 14.42A2.69 2.69 0 0 0 0 17.108V28.75a2.692 2.692 0 0 0 2.68 2.687l6.413-.563a30.273 30.273 0 0 0 2.987 7.223L7.15 42.242a2.7 2.7 0 0 0 0 3.8l8.217 8.233a2.686 2.686 0 0 0 3.792 0l4.14-4.94a30.07 30.07 0 0 0 7.21 2.991l-.562 6.424a2.692 2.692 0 0 0 2.682 2.686h11.62a2.692 2.692 0 0 0 2.683-2.686l-.562-6.424a30.07 30.07 0 0 0 7.21-2.992l4.138 4.94a2.688 2.688 0 0 0 3.793 0l8.218-8.232a2.7 2.7 0 0 0 0-3.8l-4.932-4.145a30.273 30.273 0 0 0 2.988-7.223l6.41.563a2.693 2.693 0 0 0 2.682-2.687V17.108a2.69 2.69 0 0 0-2.682-2.687" opacity=".5"/>
        <g transform="translate(39.228 .595)">
            <mask id="b" fill="#fff">
                <use xlink:href="#a"/>
            </mask>
            <path fill="#00BFA5" d="M.435 6.428A24.104 24.104 0 0 1 6.362 22.29a24.08 24.08 0 0 1-4.523 14.082c6.644-1.238 11.676-7.07 11.676-14.082V.068a22.274 22.274 0 0 0-13.08 6.36" mask="url(#b)"/>
        </g>
        <path fill="#00BFA5" d="M24.136 16.242v6.686c0 7.307 5.46 13.331 12.516 14.212a14.74 14.74 0 0 0 1.34-6.152c0-7.86-6.127-14.283-13.856-14.746"/>
        <path fill="#00BFA5" d="M24.136.706v13.74c8.718.466 15.643 7.693 15.643 16.542 0 2.217-.438 4.332-1.227 6.266l.07-.001a22.308 22.308 0 0 0 5.18-14.325c0-11.454-8.59-20.894-19.666-22.222"/>
        <path fill="#32B9A5" d="M165.725 17.106a3.284 3.284 0 0 0-3.277 3.284c0 5.66-4.598 10.268-10.25 10.268s-10.25-4.608-10.25-10.268c0-1.81-1.471-3.284-3.277-3.284a3.284 3.284 0 0 0-3.278 3.284c0 9.282 7.538 16.834 16.805 16.834s16.804-7.552 16.804-16.834c0-1.81-1.47-3.284-3.277-3.284"/>
        <path fill="#FFF" d="M198.82 37.176c-1.114 0-2.174-.48-2.863-1.437l-9.865-13.07-2.758 3.296v7.491c0 2.02-1.698 3.72-3.82 3.72-2.014 0-3.71-1.7-3.71-3.72V4.818c0-2.02 1.696-3.72 3.816-3.72 2.016 0 3.714 1.7 3.714 3.72V17.25l11.667-14.772c.638-.85 1.698-1.275 2.705-1.275 1.91 0 3.607 1.541 3.607 3.455 0 .796-.265 1.593-.796 2.23l-9.44 11.159 10.66 13.334c.479.64.742 1.383.742 2.127 0 1.86-1.591 3.667-3.658 3.667M217.063 8.059v9.564h7.903c3.023 0 5.302-1.806 5.302-4.783 0-2.974-2.279-4.781-5.302-4.781h-7.903zm13.153 15.302l4.88 8.289c.316.583.477 1.222.477 1.805 0 1.808-1.485 3.721-3.713 3.721-1.326 0-2.545-.692-3.236-1.913l-6.046-10.999h-5.515v9.191c0 2.02-1.697 3.721-3.818 3.721-2.016 0-3.713-1.701-3.713-3.72V5.667c0-2.339 1.91-4.25 4.244-4.25h12.303c7.372 0 11.88 4.833 11.88 11.422 0 6.27-3.924 9.617-7.743 10.521zM247.346 37.176c-2.014 0-3.71-1.7-3.71-3.72V4.818c0-2.02 1.696-3.72 3.816-3.72 2.016 0 3.714 1.7 3.714 3.72v28.638c0 2.02-1.698 3.72-3.82 3.72M281.29 8.059h-7.374v25.343c0 2.073-1.697 3.774-3.817 3.774-2.07 0-3.767-1.701-3.767-3.774V8.06h-7.372c-1.802 0-3.287-1.488-3.287-3.401 0-1.753 1.485-3.24 3.287-3.24h22.33c1.75 0 3.234 1.487 3.234 3.347 0 1.806-1.485 3.294-3.234 3.294" opacity=".8"/>
        <g transform="translate(288.178 .595)">
            <mask id="d" fill="#fff">
                <use xlink:href="#c"/>
            </mask>
            <path fill="#FFF" d="M4.566 36.58c-2.015 0-3.712-1.7-3.712-3.719V4.222C.854 2.203 2.55.503 4.67.503c2.016 0 3.714 1.7 3.714 3.72V32.86c0 2.02-1.698 3.72-3.819 3.72" mask="url(#d)" opacity=".8"/>
        </g>
        <path fill="#FFF" d="M115.459 37.493c-5.145 0-11.508-1.7-13.47-4.622a3.182 3.182 0 0 1-.585-1.806c0-2.019 1.752-3.507 3.553-3.507.69 0 1.433.16 2.017.584a15.514 15.514 0 0 0 8.857 2.763c4.136 0 6.152-1.912 6.152-3.931 0-6.27-20.367-1.967-20.367-15.302 0-5.897 5.092-10.787 13.42-10.787 4.03 0 10.183 1.33 12.144 3.932.425.532.635 1.168.635 1.808 0 2.018-1.961 3.4-3.764 3.4-.636 0-1.273-.16-1.91-.533-2.439-1.38-5.197-2.017-7.796-2.017-3.235 0-5.04 1.434-5.04 3.558 0 5.633 20.314 1.86 20.314 15.09 0 6.483-4.613 11.37-14.16 11.37M138.733 12.08c1.842 0 3.34-1.502 3.34-3.346V5.477a3.347 3.347 0 0 0-3.34-3.346 3.346 3.346 0 0 0-3.34 3.346v3.257a3.345 3.345 0 0 0 3.34 3.345M165.666 2.13a3.345 3.345 0 0 0-3.34 3.346v3.257a3.346 3.346 0 0 0 3.34 3.346c1.842 0 3.339-1.5 3.339-3.346V5.476a3.345 3.345 0 0 0-3.34-3.345M107.413 51.226c-.478-.704-1.175-1.054-2.091-1.054a3.17 3.17 0 0 0-.84.113 2.307 2.307 0 0 0-.74.354c-.22.157-.395.362-.526.61a1.85 1.85 0 0 0-.198.879c0 .489.137.87.412 1.14.274.27.616.492 1.021.666.408.172.853.328 1.337.465s.928.321 1.335.55c.407.23.748.534 1.022.911.276.376.411.891.411 1.542 0 .49-.102.931-.313 1.325-.207.391-.482.72-.823.985a4.003 4.003 0 0 1-2.419.825c-.661 0-1.29-.125-1.885-.374-.594-.25-1.1-.66-1.518-1.232l1.007-.717c.233.398.557.716.974.956.417.24.908.36 1.475.36.274 0 .549-.045.822-.132.275-.087.52-.213.738-.381.218-.168.399-.376.54-.62.142-.245.213-.525.213-.84 0-.377-.08-.69-.235-.941a2.07 2.07 0 0 0-.627-.628 3.982 3.982 0 0 0-.886-.42c-.33-.111-.67-.223-1.022-.335-.35-.112-.693-.239-1.022-.383a3.585 3.585 0 0 1-.887-.542 2.437 2.437 0 0 1-.624-.827c-.158-.33-.237-.746-.237-1.244 0-.522.1-.975.297-1.361.198-.388.465-.71.794-.965.33-.253.704-.442 1.122-.564a4.535 4.535 0 0 1 1.282-.184c.61 0 1.164.097 1.664.29.499.194.96.534 1.388 1.023l-.961.75zM115.578 60.263a7.688 7.688 0 0 1-.038-.575 24.276 24.276 0 0 1-.007-.571h-.031a2.296 2.296 0 0 1-.428.534 2.802 2.802 0 0 1-.58.42c-.214.118-.44.21-.679.275a2.64 2.64 0 0 1-.71.1c-.916 0-1.592-.242-2.03-.726-.436-.484-.656-1.175-.656-2.072v-4.54h1.008v3.96c0 .397.03.748.092 1.054.06.307.166.564.311.772.149.21.347.367.596.474.25.108.561.161.94.161.05 0 .192-.02.426-.062.234-.04.48-.153.74-.337.261-.183.492-.457.695-.825.203-.367.306-.876.306-1.527v-3.67h1.007v5.58a25.492 25.492 0 0 0 .076 1.575h-1.038zM122.69 54.804a1.897 1.897 0 0 0-.61-.704c-.255-.173-.565-.258-.931-.258-.174 0-.349.019-.526.06-.178.041-.34.105-.481.192a1.051 1.051 0 0 0-.344.328.884.884 0 0 0-.13.49c0 .336.117.58.352.733.234.153.585.285 1.052.397l1.024.245c.498.112.913.339 1.242.68.331.342.497.768.497 1.277 0 .388-.078.72-.237 1.002-.157.28-.366.51-.626.686-.259.18-.557.31-.892.392a4.348 4.348 0 0 1-1.022.122c-.55 0-1.062-.104-1.534-.313-.475-.21-.877-.569-1.214-1.078l.87-.597c.203.327.46.586.77.78.31.195.68.29 1.108.29.203 0 .406-.023.61-.068.203-.046.384-.117.543-.214.155-.097.283-.222.38-.374a.995.995 0 0 0 .144-.536c0-.357-.132-.614-.395-.772a3.506 3.506 0 0 0-.963-.374l-.976-.23a7.113 7.113 0 0 1-.496-.153 2.39 2.39 0 0 1-.612-.32 1.965 1.965 0 0 1-.51-.558c-.142-.231-.214-.513-.214-.85a2 2 0 0 1 .223-.963c.146-.274.344-.5.594-.673.25-.173.53-.302.847-.39.316-.086.641-.129.976-.129.499 0 .962.096 1.39.29.428.195.757.525.99.995l-.9.595zM129.1 54.024h-2.06v4.22c0 .265.023.482.075.651a.908.908 0 0 0 .214.389c.09.093.2.156.328.191.127.037.266.053.42.053.173 0 .35-.025.533-.075a2.63 2.63 0 0 0 .504-.2l.046.934c-.377.172-.83.259-1.359.259-.194 0-.394-.025-.603-.077a1.41 1.41 0 0 1-.572-.291 1.59 1.59 0 0 1-.427-.58c-.112-.245-.168-.566-.168-.962v-4.512h-1.51v-.916h1.51V51.09h1.009v2.018h2.06v.916zM134.533 56.7c-.256 0-.574.013-.955.038-.38.026-.748.087-1.098.184a2.404 2.404 0 0 0-.901.45c-.25.205-.375.485-.375.842 0 .234.05.436.145.604.097.167.227.306.392.413.161.107.342.183.54.229.2.045.399.069.603.069.367 0 .684-.062.953-.184.27-.122.496-.287.68-.497a2.01 2.01 0 0 0 .405-.733c.086-.28.13-.579.13-.894v-.522h-.52zm.519-.827v-.183c0-1.23-.61-1.848-1.832-1.848-.835 0-1.562.28-2.182.84l-.612-.718c.672-.694 1.68-1.04 3.023-1.04.346 0 .68.052.998.152.32.102.599.258.833.467.233.209.422.471.566.788.14.315.213.692.213 1.13v3.196a11.053 11.053 0 0 0 .122 1.606h-.978a6.335 6.335 0 0 1-.069-.566 8.284 8.284 0 0 1-.02-.597h-.033c-.294.48-.642.822-1.045 1.033-.402.21-.893.314-1.474.314-.314 0-.62-.045-.914-.131a2.343 2.343 0 0 1-.787-.397c-.228-.18-.411-.399-.548-.658a1.915 1.915 0 0 1-.207-.91c0-.58.151-1.037.45-1.369.3-.33.677-.577 1.129-.74a5.575 5.575 0 0 1 1.45-.307c.514-.04.986-.062 1.412-.062h.505zM138.623 60.262h1.007v-7.154h-1.007v7.154zm1.236-9.907c0 .213-.075.39-.23.527a.732.732 0 0 1-.504.208.728.728 0 0 1-.501-.208.674.674 0 0 1-.23-.527c0-.214.076-.39.23-.528a.733.733 0 0 1 .501-.206c.184 0 .353.07.505.206.154.137.23.314.23.528zM143.018 53.108c.021.193.033.384.039.573.004.188.007.378.007.573h.03c.113-.195.255-.373.429-.535.172-.164.366-.304.579-.421.213-.117.44-.21.68-.276.238-.066.474-.098.71-.098.915 0 1.592.241 2.03.726.435.484.656 1.175.656 2.07v4.542h-1.009v-3.96c0-.795-.138-1.403-.412-1.826-.275-.423-.783-.635-1.526-.635-.05 0-.194.02-.426.06-.235.042-.48.155-.741.338-.26.184-.491.458-.696.825-.201.366-.304.878-.304 1.529v3.669h-1.007V54.68c0-.193-.007-.438-.024-.734a30.527 30.527 0 0 0-.053-.84h1.038zM154.601 56.7c-.256 0-.573.013-.954.038-.38.026-.748.087-1.098.184a2.404 2.404 0 0 0-.902.45c-.25.205-.374.485-.374.842 0 .234.05.436.145.604.097.167.227.306.391.413.162.107.343.183.541.229.199.045.399.069.603.069.366 0 .684-.062.953-.184.27-.122.495-.287.68-.497a2.01 2.01 0 0 0 .405-.733c.085-.28.13-.579.13-.894v-.522h-.52zm.52-.827v-.183c0-1.23-.61-1.848-1.833-1.848-.835 0-1.561.28-2.182.84l-.611-.718c.672-.694 1.68-1.04 3.023-1.04.345 0 .679.052.998.152.32.102.598.258.832.467.234.209.422.471.566.788.141.315.213.692.213 1.13v3.196a11.053 11.053 0 0 0 .122 1.606h-.977a6.335 6.335 0 0 1-.07-.566 8.284 8.284 0 0 1-.02-.597h-.032c-.294.48-.643.822-1.046 1.033-.401.21-.892.314-1.473.314-.315 0-.62-.045-.914-.131a2.343 2.343 0 0 1-.787-.397c-.228-.18-.412-.399-.548-.658a1.915 1.915 0 0 1-.208-.91c0-.58.152-1.037.452-1.369.3-.33.676-.577 1.127-.74a5.575 5.575 0 0 1 1.452-.307c.513-.04.985-.062 1.411-.062h.504zM164.98 56.685c0-.4-.064-.769-.192-1.117a2.7 2.7 0 0 0-.54-.901 2.548 2.548 0 0 0-.848-.604 2.715 2.715 0 0 0-1.121-.222c-.418 0-.8.073-1.146.222a2.81 2.81 0 0 0-.901.604 2.756 2.756 0 0 0-.594.901 2.903 2.903 0 0 0-.213 1.117c0 .398.07.769.213 1.117.143.346.341.646.594.901.254.255.554.457.901.604.346.147.728.222 1.146.222.416 0 .79-.075 1.121-.222.33-.147.614-.35.847-.604a2.7 2.7 0 0 0 .541-.901c.128-.348.192-.72.192-1.117zm-6.518-7.982h1.008V54.3h.03a2.63 2.63 0 0 1 .58-.627c.224-.174.458-.317.703-.429.244-.112.494-.193.755-.244a4.033 4.033 0 0 1 2.275.208c.462.188.86.449 1.197.786.336.336.597.733.787 1.192.188.46.28.958.28 1.499 0 .54-.092 1.04-.28 1.498a3.64 3.64 0 0 1-.787 1.193 3.593 3.593 0 0 1-1.198.787 4.033 4.033 0 0 1-2.274.206c-.26-.05-.51-.133-.755-.245a3.587 3.587 0 0 1-.702-.427 2.658 2.658 0 0 1-.581-.627h-.03v1.193h-1.008v-11.56zM168.015 60.262h1.007v-11.56h-1.007zM177.005 56.134c0-.683-.205-1.236-.61-1.658-.406-.423-.977-.635-1.709-.635-.326 0-.642.063-.947.191a2.63 2.63 0 0 0-1.35 1.246 1.9 1.9 0 0 0-.207.856h4.823zm-4.854.826c.031.357.118.693.26 1.01a2.647 2.647 0 0 0 1.375 1.361c.305.132.634.198.99.198.54 0 1.006-.125 1.398-.375.391-.25.688-.536.893-.863l.777.64c-.428.542-.898.928-1.411 1.162a3.924 3.924 0 0 1-1.657.354 3.793 3.793 0 0 1-1.472-.284 3.447 3.447 0 0 1-1.167-.787 3.744 3.744 0 0 1-.77-1.193 3.91 3.91 0 0 1-.283-1.498 4 4 0 0 1 .275-1.5c.182-.458.437-.855.763-1.191a3.475 3.475 0 0 1 1.144-.787 3.55 3.55 0 0 1 1.42-.284c.538 0 1.022.097 1.448.292.428.193.787.45 1.078.772.29.32.51.698.663 1.13.152.434.23.895.23 1.384v.46h-5.954zM189.383 54.79a2.166 2.166 0 0 0-.725-.674 2.051 2.051 0 0 0-1.061-.275 2.684 2.684 0 0 0-1.122.198 2.468 2.468 0 0 0-1.38 1.507c-.123.35-.185.73-.185 1.139 0 .406.062.786.184 1.14.122.35.3.654.534.909.234.255.517.452.847.596.33.143.706.21 1.122.2.398 0 .751-.094 1.061-.278.31-.182.552-.406.725-.671l.825.627a3.431 3.431 0 0 1-1.207.925 3.638 3.638 0 0 1-1.404.314 3.98 3.98 0 0 1-1.572-.268 3.46 3.46 0 0 1-1.198-.788 3.371 3.371 0 0 1-.755-1.2 4.28 4.28 0 0 1-.26-1.506c0-.54.087-1.043.26-1.506a3.37 3.37 0 0 1 .755-1.201 3.5 3.5 0 0 1 1.198-.787 4.007 4.007 0 0 1 1.572-.268c.488.01.957.116 1.404.314.448.199.85.508 1.207.925l-.825.627zM191.642 55.339c0-.315-.01-.637-.024-.962-.015-.327-.028-.75-.038-1.27h.992v1.33h.03c.072-.193.173-.38.306-.558a2.398 2.398 0 0 1 1.138-.826c.248-.086.53-.13.846-.13.284 0 .534.031.749.093l-.2.994c-.132-.051-.327-.076-.58-.076-.386 0-.717.073-.99.22a2.2 2.2 0 0 0-.689.566 2.47 2.47 0 0 0-.534 1.507v4.036h-1.006v-4.924zM201.88 56.134c0-.683-.204-1.236-.61-1.658-.405-.423-.976-.635-1.708-.635-.326 0-.643.063-.947.191a2.63 2.63 0 0 0-1.351 1.246 1.9 1.9 0 0 0-.206.856h4.823zm-4.853.826c.031.357.118.693.26 1.01a2.647 2.647 0 0 0 1.375 1.361c.304.132.634.198.99.198.54 0 1.005-.125 1.398-.375.391-.25.688-.536.892-.863l.778.64c-.428.542-.898.928-1.411 1.162a3.924 3.924 0 0 1-1.657.354 3.793 3.793 0 0 1-1.472-.284 3.447 3.447 0 0 1-1.168-.787 3.744 3.744 0 0 1-.77-1.193 3.91 3.91 0 0 1-.282-1.498 4 4 0 0 1 .275-1.5c.182-.458.436-.855.763-1.191a3.475 3.475 0 0 1 1.144-.787 3.55 3.55 0 0 1 1.42-.284c.538 0 1.022.097 1.448.292.428.193.787.45 1.078.772.29.32.51.698.663 1.13.151.434.23.895.23 1.384v.46h-5.954zM208.872 56.7c-.256 0-.574.013-.955.038-.38.026-.748.087-1.098.184a2.404 2.404 0 0 0-.901.45c-.25.205-.375.485-.375.842 0 .234.05.436.146.604.097.167.226.306.39.413.162.107.343.183.542.229.198.045.398.069.603.069.366 0 .683-.062.952-.184.27-.122.496-.287.68-.497a2.01 2.01 0 0 0 .405-.733c.086-.28.13-.579.13-.894v-.522h-.52zm.519-.827v-.183c0-1.23-.61-1.848-1.832-1.848-.835 0-1.562.28-2.182.84l-.612-.718c.672-.694 1.68-1.04 3.023-1.04.346 0 .68.052.998.152.321.102.599.258.833.467.233.209.422.471.566.788.14.315.213.692.213 1.13v3.196a11.053 11.053 0 0 0 .122 1.606h-.978a6.335 6.335 0 0 1-.069-.566 8.284 8.284 0 0 1-.02-.597h-.033c-.294.48-.642.822-1.045 1.033-.402.21-.893.314-1.473.314-.315 0-.62-.045-.915-.131a2.343 2.343 0 0 1-.787-.397c-.228-.18-.411-.399-.548-.658a1.915 1.915 0 0 1-.207-.91c0-.58.151-1.037.451-1.369.3-.33.676-.577 1.128-.74a5.575 5.575 0 0 1 1.45-.307c.514-.04.986-.062 1.412-.062h.505zM216.427 54.024h-2.06v4.22c0 .265.024.482.075.651a.908.908 0 0 0 .215.389c.09.093.2.156.328.191.126.037.266.053.419.053.173 0 .351-.025.534-.075a2.63 2.63 0 0 0 .504-.2l.045.934c-.376.172-.829.259-1.358.259-.194 0-.394-.025-.603-.077a1.41 1.41 0 0 1-.572-.291 1.59 1.59 0 0 1-.428-.58c-.112-.245-.167-.566-.167-.962v-4.512h-1.51v-.916h1.51V51.09h1.008v2.018h2.06v.916zM218.027 60.262h1.008v-7.154h-1.008v7.154zm1.237-9.907c0 .213-.077.39-.23.527a.735.735 0 0 1-.504.208.734.734 0 0 1-.503-.208.677.677 0 0 1-.229-.527c0-.214.076-.39.23-.528a.74.74 0 0 1 .502-.206.74.74 0 0 1 .505.206c.152.137.229.314.229.528zM227.582 56.685c0-.4-.065-.769-.191-1.117a2.703 2.703 0 0 0-.543-.901 2.533 2.533 0 0 0-.846-.604 2.705 2.705 0 0 0-1.122-.222 2.71 2.71 0 0 0-1.122.222c-.33.147-.61.35-.84.604a2.784 2.784 0 0 0-.533.901 3.232 3.232 0 0 0-.192 1.117c0 .398.065.769.192 1.117.128.346.305.646.533.901.23.255.51.457.84.604.33.147.706.222 1.122.222.417 0 .79-.075 1.122-.222.33-.147.613-.35.846-.604.234-.255.415-.555.543-.901.126-.348.191-.72.191-1.117m1.098 0c0 .54-.094 1.04-.282 1.498-.188.458-.45.857-.785 1.193a3.584 3.584 0 0 1-1.2.787 4.022 4.022 0 0 1-1.533.284 3.982 3.982 0 0 1-1.518-.284 3.584 3.584 0 0 1-1.2-.787 3.613 3.613 0 0 1-.785-1.193 3.91 3.91 0 0 1-.282-1.498c0-.54.094-1.04.282-1.5.189-.458.45-.855.786-1.191a3.562 3.562 0 0 1 1.2-.787 3.982 3.982 0 0 1 1.517-.284c.56 0 1.072.096 1.533.284.465.189.863.45 1.2.787.335.336.597.733.785 1.192.188.46.282.958.282 1.499M231.473 53.108c.02.193.033.384.038.573.005.188.008.378.008.573h.03c.112-.195.255-.373.429-.535.172-.164.366-.304.579-.421.213-.117.44-.21.68-.276.237-.066.474-.098.71-.098.915 0 1.592.241 2.03.726.435.484.656 1.175.656 2.07v4.542h-1.01v-3.96c0-.795-.137-1.403-.41-1.826-.276-.423-.784-.635-1.527-.635-.05 0-.194.02-.426.06-.236.042-.481.155-.741.338-.26.184-.491.458-.696.825-.201.366-.304.878-.304 1.529v3.669h-1.007V54.68c0-.193-.008-.438-.024-.734a30.527 30.527 0 0 0-.053-.84h1.038zM242.782 54.804a1.897 1.897 0 0 0-.61-.704c-.255-.173-.565-.258-.931-.258-.173 0-.348.019-.526.06-.178.041-.34.105-.481.192a1.051 1.051 0 0 0-.344.328.884.884 0 0 0-.13.49c0 .336.117.58.352.733.234.153.585.285 1.053.397l1.023.245c.498.112.913.339 1.242.68.331.342.497.768.497 1.277 0 .388-.078.72-.236 1.002-.158.28-.367.51-.627.686-.259.18-.557.31-.892.392a4.348 4.348 0 0 1-1.022.122c-.55 0-1.062-.104-1.534-.313-.475-.21-.877-.569-1.214-1.078l.87-.597c.203.327.46.586.77.78.311.195.68.29 1.108.29.203 0 .406-.023.61-.068.203-.046.384-.117.543-.214.155-.097.283-.222.38-.374a.995.995 0 0 0 .144-.536c0-.357-.132-.614-.395-.772a3.506 3.506 0 0 0-.963-.374l-.976-.23a7.113 7.113 0 0 1-.496-.153 2.39 2.39 0 0 1-.611-.32 1.965 1.965 0 0 1-.51-.558c-.143-.231-.215-.513-.215-.85a2 2 0 0 1 .223-.963c.146-.274.344-.5.594-.673.25-.173.53-.302.847-.39.316-.086.641-.129.976-.129.499 0 .962.096 1.39.29.428.195.757.525.99.995l-.9.595zM253.068 54.024h-1.692v6.238h-1.009v-6.238h-1.51v-.916h1.51V51.15c0-.948.22-1.623.656-2.025.438-.404 1.019-.604 1.74-.604.144 0 .288.01.436.03.146.02.291.045.435.076l-.183.918a4.178 4.178 0 0 0-.383-.077 2.77 2.77 0 0 0-.397-.03c-.273 0-.497.045-.672.136a.954.954 0 0 0-.395.39 1.689 1.689 0 0 0-.184.591c-.03.223-.044.463-.044.717v1.836h1.692v.916zM260.38 56.685c0-.4-.065-.769-.192-1.117a2.703 2.703 0 0 0-.542-.901 2.533 2.533 0 0 0-.847-.604 2.705 2.705 0 0 0-1.122-.222 2.71 2.71 0 0 0-1.122.222c-.33.147-.61.35-.84.604a2.784 2.784 0 0 0-.533.901 3.232 3.232 0 0 0-.191 1.117c0 .398.065.769.191 1.117.128.346.306.646.534.901.229.255.51.457.84.604.33.147.705.222 1.121.222.418 0 .791-.075 1.122-.222.33-.147.613-.35.847-.604.234-.255.414-.555.542-.901.127-.348.191-.72.191-1.117m1.099 0c0 .54-.094 1.04-.283 1.498-.188.458-.45.857-.785 1.193a3.584 3.584 0 0 1-1.2.787 4.022 4.022 0 0 1-1.533.284 3.982 3.982 0 0 1-1.517-.284 3.584 3.584 0 0 1-1.2-.787 3.613 3.613 0 0 1-.785-1.193 3.91 3.91 0 0 1-.282-1.498c0-.54.094-1.04.282-1.5.188-.458.45-.855.785-1.191a3.562 3.562 0 0 1 1.2-.787 3.982 3.982 0 0 1 1.517-.284c.56 0 1.072.096 1.534.284.464.189.863.45 1.2.787.335.336.596.733.784 1.192.189.46.283.958.283 1.499M263.416 55.339c0-.315-.009-.637-.023-.962-.015-.327-.028-.75-.039-1.27h.993v1.33h.03c.071-.193.173-.38.305-.558a2.398 2.398 0 0 1 1.138-.826c.249-.086.53-.13.847-.13.284 0 .534.031.748.093l-.2.994c-.132-.051-.326-.076-.58-.076-.386 0-.716.073-.99.22a2.2 2.2 0 0 0-.688.566 2.47 2.47 0 0 0-.534 1.507v4.036h-1.007v-4.924z" opacity=".8"/>
        <path fill="#32B9A5" d="M271.565 52.924h2.014l2.045 5.092h.03l1.831-5.092h1.909l-3.464 8.914a5.63 5.63 0 0 1-.435.909c-.16.26-.344.478-.558.657-.214.178-.464.31-.755.399-.29.085-.638.13-1.046.13-.478 0-.945-.062-1.404-.185l.23-1.65c.14.05.292.093.45.129.158.037.317.054.48.054.224 0 .413-.02.565-.06.153-.043.282-.106.39-.192.105-.088.195-.2.266-.337a7.08 7.08 0 0 0 .229-.498l.351-.87-3.128-7.4zM281.943 56.593c0 .284.048.561.145.826a2.076 2.076 0 0 0 1.108 1.192c.263.122.563.184.9.184.335 0 .635-.062.9-.184a2.1 2.1 0 0 0 1.107-1.192c.096-.265.145-.542.145-.826 0-.284-.049-.561-.146-.826a2.1 2.1 0 0 0-1.107-1.192 2.122 2.122 0 0 0-.9-.184 2.097 2.097 0 0 0-2.007 1.376 2.392 2.392 0 0 0-.145.826m-1.83 0c0-.582.102-1.11.312-1.582.208-.474.49-.88.846-1.215a3.71 3.71 0 0 1 1.267-.78 4.375 4.375 0 0 1 1.557-.276c.55 0 1.068.091 1.556.275a3.71 3.71 0 0 1 1.267.78c.356.337.638.742.847 1.216.209.473.313 1 .313 1.582 0 .582-.104 1.11-.313 1.582-.209.474-.49.88-.847 1.215a3.71 3.71 0 0 1-1.267.78 4.366 4.366 0 0 1-1.556.276c-.55 0-1.069-.091-1.557-.275a3.71 3.71 0 0 1-1.267-.78 3.672 3.672 0 0 1-.846-1.216c-.21-.473-.313-1-.313-1.582M296.47 60.263h-1.739v-1.177h-.03a2.573 2.573 0 0 1-.793.956c-.356.27-.84.405-1.45.405-.49 0-.904-.08-1.244-.238a2.247 2.247 0 0 1-.833-.643 2.503 2.503 0 0 1-.458-.925 4.237 4.237 0 0 1-.136-1.084v-4.633h1.83v3.715c0 .205.01.43.033.68.019.251.073.485.158.703.087.22.22.404.397.551.178.147.431.222.756.222.304 0 .562-.051.77-.154.21-.1.381-.239.52-.413a1.63 1.63 0 0 0 .297-.595c.061-.224.092-.46.092-.704v-4.005h1.83v7.339z"/>
    </g>
</svg>
